<?xml version="1.0" encoding="UTF-8"?>
<!DOCTYPE svg PUBLIC "-//W3C//DTD SVG 1.1//EN" "http://www.w3.org/Graphics/SVG/1.1/DTD/svg11.dtd">
<!-- Creator: CorelDRAW 2021 (64-Bit) -->
<svg xmlns="http://www.w3.org/2000/svg" xml:space="preserve" width="11.6929in" height="8.26772in" version="1.1" style="shape-rendering:geometricPrecision; text-rendering:geometricPrecision; image-rendering:optimizeQuality; fill-rule:evenodd; clip-rule:evenodd"
viewBox="0 0 11692.91 8267.72"
 xmlns:xlink="http://www.w3.org/1999/xlink"
 xmlns:xodm="http://www.corel.com/coreldraw/odm/2003">
 <defs>
  <style type="text/css">
   <![CDATA[
    .fil0 {fill:#BBC5CE;fill-rule:nonzero}
   ]]>
  </style>
 </defs>
 <g id="Layer_x0020_1">
  <metadata id="CorelCorpID_0Corel-Layer"/>
  <path class="fil0" d="M8732.38 3132.32c24.3,-26.25 60.83,-4.72 86.11,9.17 56.11,34.44 117.08,64.72 161.53,114.72 26.11,29.03 49.86,60 75.28,89.72 10.41,12.78 20.83,25.83 30.97,39.17 11.25,23.47 38.89,32.78 63.19,24.58 33.75,-5.28 67.78,-9.58 101.94,-12.22 33.47,0.28 54.3,30.97 75.83,52.36 40,48.06 81.25,95.14 122.08,142.5 10.97,13.75 21.8,27.64 32.78,41.53 50.7,67.08 112.22,125.14 164.72,190.83 48.33,52.78 90.83,111.8 146.25,157.78 59.72,12.64 122.5,3.47 183.06,13.61 0,15.41 0.28,30.69 0.56,46.25 -62.64,7.78 -126.53,13.47 -189.44,5.14 -63.47,-35.83 -107.78,-97.5 -159.17,-148.06 -112.78,-132.64 -228.75,-262.5 -340.14,-396.25 -51.25,-76.94 -160,-2.22 -224.44,-55.56 -13.89,-13.89 -26.81,-28.61 -39.31,-43.75 -65.83,-88.89 -142.22,-178.89 -253.06,-210.28 -69.3,28.61 -102.92,105.14 -159.17,151.8 -54.72,49.72 -127.64,73.61 -182.36,123.47 -68.06,57.5 -119.44,132.5 -190.28,186.67 -59.86,-9.86 -108.89,-50.7 -163.33,-75.14 -37.78,53.47 -69.17,110.83 -100.14,168.33 -26.11,46.25 -52.22,97.64 -101.81,122.78 -86.8,46.67 -173.89,93.06 -258.47,143.75 -98.75,55 -145.83,164.86 -231.39,235.14 -60.28,-28.33 -114.03,-75.97 -180.28,-88.06 -116.67,37.92 -210,127.92 -324.58,171.53 -58.33,-1.53 -107.78,-43.19 -159.03,-67.92 -90,-46.67 -132.64,-144.44 -206.39,-208.89 -42.64,-11.39 -87.64,-8.47 -131.25,-7.22 -82.22,1.81 -135.56,85.28 -215.97,90.42 -82.08,-60.56 -124.86,-163.61 -214.44,-216.25 -37.22,-20.97 -75,-47.64 -118.89,-50.14 -60.7,45.42 -96.94,115 -153.89,164.17 -49.86,20 -105.97,13.75 -158.33,11.94 -70,-4.17 -122.91,-55.69 -186.39,-79.03 -23.89,-9.86 -48.33,4.17 -69.59,13.75 -90.28,46.94 -171.39,110.28 -264.58,151.25 -26.25,15.56 -49.3,-12.08 -68.19,-26.94 -110.97,-107.08 -205.83,-229.44 -309.31,-343.47 -16.8,-13.75 -34.3,-26.25 -52.64,-37.78 -33.19,-20.56 -68.06,-38.06 -103.06,-55.14 -35.28,50 -67.78,101.94 -94.86,156.8 5.56,-0.97 16.67,-2.92 22.22,-3.89 -30.83,27.5 -55.7,60.69 -78.33,95 6.25,0.83 18.61,2.5 24.72,3.33 -20.56,12.36 -41.11,24.44 -61.94,36.25 -136.14,-17.39 -143.54,-5.71 -215.14,70.97 -41.67,42.5 -87.36,82.22 -118.47,133.75 -96.67,164.31 -187.5,332.22 -281.67,498.06 -68.75,119.86 -147.22,233.75 -216.67,353.33 -58.06,5.83 -116.67,11.11 -174.86,5.14 -30.14,-0.83 -48.06,-27.92 -66.81,-47.5 -38.89,-47.08 -79.58,-92.5 -125.97,-132.08 -48.61,25.28 -95.97,53.75 -147.36,73.06 -53.33,19.03 -110.97,5.83 -165.7,16.11 -79.58,76.94 -108.47,192.08 -184.17,272.78 -22.22,15.42 -52.08,10.28 -77.64,14.44 -31.11,0.83 -62.22,2.22 -92.92,7.92 -17.08,9.17 -32.92,20.69 -50.28,29.3 -39.72,16.39 -79.72,33.75 -112.36,62.64 -63.61,-26.25 -124.72,-58.06 -186.11,-89.17 -39.58,36.25 -73.47,78.06 -107.36,119.58 -19.31,20.42 -40.28,39.17 -60.97,58.2 -10.28,-0.42 -30.7,-1.25 -40.83,-1.53 -1.39,-66.81 60.14,-104.17 95.83,-152.36 31.11,-31.81 55.14,-76.11 96.53,-94.44 23.06,8.06 45.69,17.36 67.64,28.19 38.19,19.31 74.17,44.86 116.39,54.59 65.28,-15.42 111.53,-75.83 179.58,-83.61 48.33,-5.28 96.94,-3.61 145.42,-5.28 42.92,-77.36 88.89,-153.06 135.56,-228.2 15.56,-21.11 29.86,-48.33 57.36,-55 47.91,-10.69 97.5,-3.47 145.97,-9.17 75.83,-11.53 130.41,-80.69 206.94,-87.92 65.7,50.14 103.2,128.2 167.09,180.42 44.03,16.39 93.47,6.39 139.72,7.64 179.44,-266.53 328.33,-551.8 489.44,-829.3 31.94,-51.25 77.92,-91.25 115.28,-138.33 11.94,-14.72 23.47,-29.86 35.7,-44.31 49.86,-72.91 143.61,-54.03 218.89,-59.86 62.22,-90.97 108.19,-193.06 171.53,-283.89 74.17,17.92 140.42,59.17 205.42,97.78 19.44,16.8 37.64,35.28 54.86,54.58 81.94,99.3 167.36,195.83 255.14,290.14 13.06,11.25 27.5,31.39 46.94,19.72 103.47,-50.41 199.59,-115.83 301.94,-167.91 89.72,2.08 152.64,96.94 245.42,91.25 37.92,-3.33 85.42,8.06 114.03,-23.33 52.64,-50 87.92,-116.25 146.39,-160.14 62.78,-17.08 115.28,37.64 167.92,63.47 89.17,45.42 133.75,140 209.44,201.25 49.44,-23.33 95,-54.86 145.83,-75.28 53.06,-13.06 108.75,-7.78 163.06,-6.39 67.92,-0.69 97.78,70.42 137.92,113.06 55,73.89 133.06,126.53 218.06,159.86 26.25,12.22 52.09,-6.53 74.59,-18.33 72.78,-43.61 146.8,-85 219.3,-129.03 23.75,-13.33 51.67,-29.3 79.58,-18.33 50.56,20 95.97,50.97 145.56,73.33 64.31,-46.25 102.36,-117.5 159.72,-170.28 95.14,-65.97 201.11,-114.17 300.69,-172.64 28.61,-16.39 52.78,-39.86 70,-67.92 51.53,-81.11 89.44,-170 141.81,-250.56 76.25,-11.11 120.83,76.67 192.36,72.22 55.28,-55.97 101.94,-120.83 163.75,-170.56 58.19,-45.69 133.75,-66.39 184.86,-121.39 49.58,-52.22 94.3,-109.3 149.03,-156.53z"/>
 </g>
</svg>
